<svg xmlns="http://www.w3.org/2000/svg" xmlns:xlink="http://www.w3.org/1999/xlink" width="1982.251" height="1040" viewBox="0 0 1982.251 1040">
  <defs>
    <linearGradient id="linear-gradient" y1="0.5" x2="1" y2="0.5" gradientUnits="objectBoundingBox">
      <stop offset="0" stop-color="#3e0f69"/>
      <stop offset="1" stop-color="#761ee4"/>
    </linearGradient>
  </defs>
  <g id="Contact_Form" data-name="Contact Form" transform="translate(277 -3220)">
    <rect id="Container" width="1920" height="1032" transform="translate(-277 3220)" fill="none"/>
    <g id="Form" transform="translate(-192 934)">
      <g id="Button_Text-Only" transform="translate(119 3277)">
        <rect id="Container-2" data-name="Container" width="215" height="49" rx="4" fill="#6c30db"/>
        <text id="Send_Message" data-name="Send Message" transform="translate(48 31)" fill="#fff" font-size="18" font-family="Roboto-Medium, Roboto" font-weight="500"><tspan x="0" y="0">Send Message</tspan></text>
      </g>
      <g id="Checkbox" transform="translate(119 3223)">
        <text id="I_accept_ICURe_s_terms_and_conditions." data-name="I accept ICURe’s terms and conditions." transform="translate(34 18)" fill="#1d1d1d" font-size="16" font-family="ArialMT, Arial"><tspan x="0" y="0">I accept ICURe’s </tspan><tspan y="0" fill="#8842bd" text-decoration="underline">terms and conditions.</tspan></text>
        <g id="Checkbox-2" data-name="Checkbox">
          <g id="Container-3" data-name="Container" fill="none" stroke="#6c30db" stroke-width="1">
            <rect width="24" height="24" rx="4" stroke="none"/>
            <rect x="0.5" y="0.5" width="23" height="23" rx="3.5" fill="none"/>
          </g>
        </g>
      </g>
      <g id="Long_Textfield" data-name="Long Textfield" transform="translate(119 2995)">
        <g id="Textfield">
          <g id="Container-4" data-name="Container" transform="translate(0 28)" fill="none" stroke="#b892ff" stroke-width="1">
            <rect width="471" height="170" rx="4" stroke="none"/>
            <rect x="0.5" y="0.5" width="470" height="169" rx="3.5" fill="none"/>
          </g>
          <text id="Message" transform="translate(18 58)" fill="#c4c4c4" font-size="16" font-family="Roboto-Regular, Roboto"><tspan x="0" y="0">Message</tspan></text>
          <text id="Message-2" data-name="Message" transform="translate(0 15)" fill="#1d1d1d" font-size="16" font-family="ArialMT, Arial"><tspan x="0" y="0">Message</tspan></text>
        </g>
      </g>
      <g id="Dropdown" transform="translate(119 2888)">
        <g id="Textfield-2" data-name="Textfield">
          <g id="Container-5" data-name="Container" transform="translate(0 28)" fill="none" stroke="#b892ff" stroke-width="1">
            <rect width="471" height="49" rx="4" stroke="none"/>
            <rect x="0.5" y="0.5" width="470" height="48" rx="3.5" fill="none"/>
          </g>
          <text id="I_m_an_investor_" data-name="I’m an investor " transform="translate(15 58)" fill="#c4c4c4" font-size="16" font-family="Roboto-Regular, Roboto"><tspan x="0" y="0">I’m an investor </tspan></text>
          <text id="Background" transform="translate(0 15)" fill="#1d1d1d" font-size="16" font-family="ArialMT, Arial"><tspan x="0" y="0">Background</tspan></text>
          <g id="Icon_ExpandMore" transform="translate(437 41)">
            <path id="Path_291" data-name="Path 291" d="M0,0H24V24H0Z" fill="none"/>
            <path id="Path_292" data-name="Path 292" d="M16.59,8.59,12,13.17,7.41,8.59,6,10l6,6,6-6Z" fill="#1d1d1d"/>
          </g>
        </g>
      </g>
      <g id="Dropdown-2" data-name="Dropdown" transform="translate(119 2781)">
        <g id="Textfield-3" data-name="Textfield">
          <g id="Container-6" data-name="Container" transform="translate(0 28)" fill="none" stroke="#b892ff" stroke-width="1">
            <rect width="471" height="49" rx="4" stroke="none"/>
            <rect x="0.5" y="0.5" width="470" height="48" rx="3.5" fill="none"/>
          </g>
          <text id="Placeholder_text" data-name="Placeholder text" transform="translate(15 58)" fill="#c4c4c4" font-size="16" font-family="Roboto-Regular, Roboto"><tspan x="0" y="0">Placeholder text</tspan></text>
          <text id="Enquiry_Type" data-name="Enquiry Type" transform="translate(0 15)" fill="#1d1d1d" font-size="16" font-family="ArialMT, Arial"><tspan x="0" y="0">Enquiry Type</tspan></text>
          <g id="Icon_ExpandMore-2" data-name="Icon_ExpandMore" transform="translate(437 41)">
            <path id="Path_291-2" data-name="Path 291" d="M0,0H24V24H0Z" fill="none"/>
            <path id="Path_292-2" data-name="Path 292" d="M16.59,8.59,12,13.17,7.41,8.59,6,10l6,6,6-6Z" fill="#1d1d1d"/>
          </g>
        </g>
      </g>
      <g id="Short_Textfield" data-name="Short Textfield" transform="translate(119 2674)">
        <g id="Textfield-4" data-name="Textfield">
          <g id="Container-7" data-name="Container" transform="translate(0 28)" fill="none" stroke="#b892ff" stroke-width="1">
            <rect width="471" height="49" rx="4" stroke="none"/>
            <rect x="0.5" y="0.5" width="470" height="48" rx="3.5" fill="none"/>
          </g>
          <text id="john.doe_email.com" data-name="john.doe@email.com" transform="translate(16 58)" fill="#c4c4c4" font-size="16" font-family="Roboto-Regular, Roboto"><tspan x="0" y="0">john.doe@email.com</tspan></text>
          <text id="Email" transform="translate(0 15)" fill="#1d1d1d" font-size="16" font-family="ArialMT, Arial"><tspan x="0" y="0">Email</tspan></text>
        </g>
      </g>
      <g id="Short_Textfield-2" data-name="Short Textfield" transform="translate(119 2567)">
        <g id="Textfield-5" data-name="Textfield">
          <g id="Container-8" data-name="Container" transform="translate(0 28)" fill="none" stroke="#b892ff" stroke-width="1">
            <rect width="471" height="49" rx="4" stroke="none"/>
            <rect x="0.5" y="0.5" width="470" height="48" rx="3.5" fill="none"/>
          </g>
          <text id="John_Doe" data-name="John Doe" transform="translate(15 58)" fill="#c4c4c4" font-size="16" font-family="Roboto-Regular, Roboto"><tspan x="0" y="0">John Doe</tspan></text>
          <text id="Name" transform="translate(0 15)" fill="#1d1d1d" font-size="16" font-family="ArialMT, Arial"><tspan x="0" y="0">Name</tspan></text>
        </g>
      </g>
    </g>
    <text id="Book_your_place_find_out_more_information_about_the_lean_launch_ICURe_Main_post_programme_support" data-name="Book your place/find out more information about the lean launch/ICURe Main/post programme support" transform="translate(-73 3387)" font-size="18" font-family="ArialMT, Arial"><tspan x="0" y="16">Book your place/find out more information about the lean </tspan><tspan x="0" y="43">launch/ICURe Main/post programme support</tspan></text>
    <text id="Get_In_Contact" data-name="Get In Contact" transform="translate(-73 3351)" font-size="44" font-family="SegoeUI, Segoe UI"><tspan x="0" y="0">Get In Contact</tspan></text>
    <g id="Graphics" transform="translate(807.829 3236.473)">
      <g id="Layer_2" data-name="Layer 2" transform="translate(-105.472 25.932)" opacity="0.895">
        <g id="Layer_1" data-name="Layer 1" transform="translate(0 0)">
          <path id="Path_628" data-name="Path 628" d="M613.378,277.673l-59.146,39.645a19.5,19.5,0,0,0-5.343,27.058h0a19.509,19.509,0,0,0,27.058,5.343l14.769-9.923a19.5,19.5,0,0,1,27.058,5.343h0a19.494,19.494,0,0,1-5.343,27.058l-29.821,19.99a19.494,19.494,0,0,0-5.343,27.058h0a19.51,19.51,0,0,1-5.343,27.066l-121,81.114a19.494,19.494,0,0,1-27.058-5.343h0a19.509,19.509,0,0,1,5.343-27.058l7.213-4.832a19.509,19.509,0,0,0,5.343-27.058h0a19.5,19.5,0,0,0-27.058-5.343l-96.417,64.657a19.5,19.5,0,0,1-27.066-5.343h0a19.509,19.509,0,0,1,5.343-27.058l56.834-38.1a19.494,19.494,0,0,0,5.343-27.058h0a19.5,19.5,0,0,0-27.058-5.343l-7.824,5.244a19.5,19.5,0,0,1-27.058-5.343h0a19.509,19.509,0,0,1,5.343-27.058L409.369,320.5a19.5,19.5,0,0,1,27.058,5.343h0a19.5,19.5,0,0,0,27.058,5.343l128.17-85.915a19.494,19.494,0,0,1,27.058,5.343h0a19.5,19.5,0,0,1-5.335,27.058Zm42.308,267.148,59.146-39.645a19.509,19.509,0,0,1,27.058,5.343h0a19.5,19.5,0,0,1-5.343,27.058L721.779,547.5a19.5,19.5,0,0,0-5.343,27.058h0a19.494,19.494,0,0,0,27.058,5.343l29.821-19.99a19.509,19.509,0,0,1,27.058,5.343h0a19.5,19.5,0,0,0,27.058,5.343l121.018-81.114a19.5,19.5,0,0,0,5.343-27.058h0a19.509,19.509,0,0,0-27.058-5.343l-7.213,4.839a19.509,19.509,0,0,1-27.058-5.343h0a19.509,19.509,0,0,1,5.343-27.058l96.44-64.673a19.5,19.5,0,0,0,5.343-27.058h0a19.494,19.494,0,0,0-27.058-5.343l-56.841,38.1a19.494,19.494,0,0,1-27.058-5.343h0a19.509,19.509,0,0,1,5.343-27.058L901.8,332.9a19.494,19.494,0,0,0,5.343-27.058h0a19.494,19.494,0,0,0-27.058-5.343L772.819,372.419a19.5,19.5,0,0,0-5.343,27.058h0a19.509,19.509,0,0,1-5.343,27.058L633.971,512.45a19.5,19.5,0,0,0-5.343,27.058h0a19.5,19.5,0,0,0,27.028,5.335Zm5.74-399.348h0a19.532,19.532,0,0,0-27.1-5.343L503.878,227.595a19.525,19.525,0,0,0-5.343,27.089h0a19.517,19.517,0,0,0,27.089,5.343l130.452-87.434a19.525,19.525,0,0,0,5.351-27.1Zm51.949-34.8h0a19.525,19.525,0,0,0-27.089-5.343h0a19.525,19.525,0,0,0-5.343,27.1h0a19.525,19.525,0,0,0,27.089,5.343h0A19.532,19.532,0,0,0,713.375,110.676ZM80.686,486.911h0a19.525,19.525,0,0,0-27.1-5.343h0a19.532,19.532,0,0,0-5.343,27.1h0a19.532,19.532,0,0,0,27.1,5.343h0a19.525,19.525,0,0,0,5.343-27.1ZM390.218,698.156h0a19.532,19.532,0,0,0-27.1-5.343l-99.654,66.795a19.525,19.525,0,0,0-5.343,27.089h0a19.517,19.517,0,0,0,27.089,5.343l99.654-66.795a19.525,19.525,0,0,0,5.351-27.089ZM113.98,635.9h0a19.532,19.532,0,0,0-27.1-5.343L8.655,682.982a19.525,19.525,0,0,0-5.343,27.1h0A19.525,19.525,0,0,0,30.4,715.422l78.228-52.437A19.532,19.532,0,0,0,113.98,635.9Zm328.21,27.44h0a19.525,19.525,0,0,0-27.1-5.343h0a19.532,19.532,0,0,0-5.343,27.1h0a19.525,19.525,0,0,0,27.089,5.343h0a19.517,19.517,0,0,0,5.328-27.1ZM824.653,206.543h0a19.525,19.525,0,0,0-27.089-5.343h0a19.517,19.517,0,0,0-5.343,27.089h0a19.525,19.525,0,0,0,27.1,5.343h0a19.532,19.532,0,0,0,5.335-27.089ZM998.2,433.581h0a19.525,19.525,0,0,0-27.1-5.343h0a19.532,19.532,0,0,0-5.343,27.1h0a19.525,19.525,0,0,0,27.089,5.343h0a19.517,19.517,0,0,0,5.351-27.1ZM618.087,468.692h0A19.525,19.525,0,0,0,591,463.349L339.178,632.094a19.517,19.517,0,0,0-5.343,27.089h0a19.525,19.525,0,0,0,27.1,5.343l251.8-168.776a19.532,19.532,0,0,0,5.343-27.1Zm96.784-118.133h0a19.532,19.532,0,0,0-27.1-5.343l-72.511,48.59a19.525,19.525,0,0,0-5.343,27.1h0a19.525,19.525,0,0,0,27.089,5.343l72.511-48.59a19.532,19.532,0,0,0,5.335-27.135ZM979.927,172.9h0a19.525,19.525,0,0,0-27.1-5.343L736.884,312.242a19.532,19.532,0,0,0-5.343,27.1h0a19.525,19.525,0,0,0,27.089,5.343l215.931-144.7a19.525,19.525,0,0,0,5.351-27.119ZM783.352,234.281h0a19.532,19.532,0,0,0-27.1-5.343L642.062,305.426a19.532,19.532,0,0,0-5.343,27.1h0a19.517,19.517,0,0,0,27.089,5.343l114.179-76.526a19.525,19.525,0,0,0,5.351-27.1ZM414.865,528.143h0a19.525,19.525,0,0,0-27.1-5.343L145.786,684.952a19.532,19.532,0,0,0-5.343,27.1h0a19.525,19.525,0,0,0,27.089,5.343L409.491,555.2a19.525,19.525,0,0,0,5.358-27.089Zm-138.031-1.366h0a19.525,19.525,0,0,0-27.1-5.343l-114.194,76.5a19.532,19.532,0,0,0-5.343,27.1h0a19.525,19.525,0,0,0,27.089,5.343l114.179-76.534a19.517,19.517,0,0,0,5.351-27.089Zm338.781,20.341h0a19.525,19.525,0,0,0-27.1-5.343L474.324,618.256a19.525,19.525,0,0,0-5.343,27.089h0a19.525,19.525,0,0,0,27.1,5.343l114.171-76.511a19.525,19.525,0,0,0,5.351-27.089Zm370.419-448.7h0a19.532,19.532,0,0,0-27.1-5.343l-114.194,76.5a19.532,19.532,0,0,0-5.343,27.1h0a19.532,19.532,0,0,0,27.1,5.343l114.171-76.526a19.532,19.532,0,0,0,5.351-27.1Zm-784.223,307.3h0a19.525,19.525,0,0,0-27.1-5.343L98.8,451.266a19.525,19.525,0,0,0-5.343,27.1h0a19.532,19.532,0,0,0,27.1,5.343l75.908-50.926a19.517,19.517,0,0,0,5.351-27.058ZM439.3,246.539h0a19.525,19.525,0,0,0-27.1-5.343L217.313,371.816a19.532,19.532,0,0,0-5.343,27.1h0a19.532,19.532,0,0,0,27.1,5.343L433.947,273.62a19.517,19.517,0,0,0,5.351-27.081ZM984.11,8.656h0a19.517,19.517,0,0,0-27.089-5.343l-317.2,212.619a19.525,19.525,0,0,0-5.343,27.1h0a19.525,19.525,0,0,0,27.089,5.343l317.2-212.619a19.532,19.532,0,0,0,5.343-27.1ZM708.681,580.627h0a19.532,19.532,0,0,0-27.1-5.343L459.471,724.192a19.517,19.517,0,0,0-5.343,27.089h0a19.517,19.517,0,0,0,27.089,5.343l222.114-148.9a19.525,19.525,0,0,0,5.351-27.1Z" transform="translate(0 0)" fill="#fff"/>
        </g>
      </g>
      <g id="Layer_2-2" data-name="Layer 2" transform="translate(-112.829 22.527)" opacity="0.895">
        <g id="Layer_1-2" data-name="Layer 1" transform="translate(0 0)">
          <path id="Path_629" data-name="Path 629" d="M613.379,277.674l-59.147,39.645a19.5,19.5,0,0,0-5.343,27.058h0a19.509,19.509,0,0,0,27.058,5.343l14.769-9.923a19.5,19.5,0,0,1,27.058,5.343h0a19.494,19.494,0,0,1-5.343,27.058l-29.821,19.99a19.494,19.494,0,0,0-5.343,27.058h0a19.509,19.509,0,0,1-5.343,27.066l-121,81.114a19.494,19.494,0,0,1-27.058-5.343h0a19.509,19.509,0,0,1,5.343-27.058l7.213-4.832a19.509,19.509,0,0,0,5.343-27.058h0a19.5,19.5,0,0,0-27.058-5.343L318.288,522.45a19.5,19.5,0,0,1-27.066-5.343h0a19.509,19.509,0,0,1,5.343-27.058l56.834-38.1a19.494,19.494,0,0,0,5.343-27.058h0a19.5,19.5,0,0,0-27.058-5.343l-7.824,5.244a19.5,19.5,0,0,1-27.058-5.343h0a19.509,19.509,0,0,1,5.343-27.058L409.37,320.5a19.5,19.5,0,0,1,27.058,5.343h0a19.5,19.5,0,0,0,27.058,5.343l128.17-85.915a19.494,19.494,0,0,1,27.058,5.343h0a19.5,19.5,0,0,1-5.335,27.058Zm42.309,267.148,59.147-39.645a19.509,19.509,0,0,1,27.058,5.343h0a19.5,19.5,0,0,1-5.343,27.058L721.78,547.5a19.5,19.5,0,0,0-5.343,27.058h0A19.494,19.494,0,0,0,743.5,579.9l29.821-19.99a19.509,19.509,0,0,1,27.058,5.343h0a19.5,19.5,0,0,0,27.058,5.343l121.018-81.114a19.5,19.5,0,0,0,5.343-27.058h0a19.509,19.509,0,0,0-27.058-5.343l-7.213,4.839a19.509,19.509,0,0,1-27.058-5.343h0a19.509,19.509,0,0,1,5.343-27.058l96.44-64.673a19.5,19.5,0,0,0,5.343-27.058h0a19.494,19.494,0,0,0-27.058-5.343l-56.841,38.1a19.494,19.494,0,0,1-27.058-5.343h0a19.509,19.509,0,0,1,5.343-27.058L901.8,332.9a19.494,19.494,0,0,0,5.343-27.058h0a19.494,19.494,0,0,0-27.058-5.343L772.82,372.419a19.5,19.5,0,0,0-5.343,27.058h0a19.509,19.509,0,0,1-5.343,27.058L633.972,512.451a19.5,19.5,0,0,0-5.343,27.058h0a19.5,19.5,0,0,0,27.028,5.335Zm5.74-399.348h0a19.532,19.532,0,0,0-27.1-5.343L503.879,227.595a19.525,19.525,0,0,0-5.343,27.089h0a19.517,19.517,0,0,0,27.089,5.343l130.452-87.434a19.525,19.525,0,0,0,5.351-27.1Zm51.949-34.8h0a19.525,19.525,0,0,0-27.089-5.343h0a19.525,19.525,0,0,0-5.343,27.1h0a19.525,19.525,0,0,0,27.089,5.343h0A19.532,19.532,0,0,0,713.376,110.676ZM80.686,486.911h0a19.525,19.525,0,0,0-27.1-5.343h0a19.532,19.532,0,0,0-5.343,27.1h0a19.532,19.532,0,0,0,27.1,5.343h0a19.525,19.525,0,0,0,5.343-27.1ZM390.219,698.157h0a19.532,19.532,0,0,0-27.1-5.343l-99.654,66.795a19.525,19.525,0,0,0-5.343,27.089h0a19.517,19.517,0,0,0,27.089,5.343l99.654-66.795a19.525,19.525,0,0,0,5.351-27.089ZM113.98,635.9h0a19.532,19.532,0,0,0-27.1-5.343L8.655,682.983a19.525,19.525,0,0,0-5.343,27.1h0A19.525,19.525,0,0,0,30.4,715.422l78.229-52.437A19.532,19.532,0,0,0,113.98,635.9Zm328.21,27.44h0a19.525,19.525,0,0,0-27.1-5.343h0a19.532,19.532,0,0,0-5.343,27.1h0a19.525,19.525,0,0,0,27.089,5.343h0a19.517,19.517,0,0,0,5.328-27.1ZM824.655,206.544h0a19.525,19.525,0,0,0-27.089-5.343h0a19.517,19.517,0,0,0-5.343,27.089h0a19.525,19.525,0,0,0,27.1,5.343h0a19.532,19.532,0,0,0,5.335-27.089ZM998.2,433.581h0a19.525,19.525,0,0,0-27.1-5.343h0a19.532,19.532,0,0,0-5.343,27.1h0a19.525,19.525,0,0,0,27.089,5.343h0a19.517,19.517,0,0,0,5.351-27.1ZM618.088,468.692h0A19.525,19.525,0,0,0,591,463.349L339.178,632.095a19.517,19.517,0,0,0-5.343,27.089h0a19.525,19.525,0,0,0,27.1,5.343L612.73,495.75a19.532,19.532,0,0,0,5.343-27.1Zm96.784-118.133h0a19.532,19.532,0,0,0-27.1-5.343l-72.512,48.59a19.524,19.524,0,0,0-5.343,27.1h0a19.525,19.525,0,0,0,27.089,5.343l72.512-48.59a19.532,19.532,0,0,0,5.335-27.135ZM979.929,172.9h0a19.525,19.525,0,0,0-27.1-5.343L736.885,312.242a19.532,19.532,0,0,0-5.343,27.1h0a19.525,19.525,0,0,0,27.089,5.343l215.932-144.7a19.525,19.525,0,0,0,5.35-27.119ZM783.354,234.281h0a19.532,19.532,0,0,0-27.1-5.343L642.063,305.426a19.533,19.533,0,0,0-5.343,27.1h0a19.517,19.517,0,0,0,27.089,5.343l114.179-76.526a19.525,19.525,0,0,0,5.351-27.1ZM414.865,528.144h0a19.525,19.525,0,0,0-27.1-5.343L145.786,684.952a19.532,19.532,0,0,0-5.343,27.1h0a19.525,19.525,0,0,0,27.089,5.343L409.492,555.2a19.525,19.525,0,0,0,5.358-27.089Zm-138.031-1.366h0a19.525,19.525,0,0,0-27.1-5.343l-114.194,76.5a19.532,19.532,0,0,0-5.343,27.1h0a19.525,19.525,0,0,0,27.089,5.343l114.179-76.534a19.517,19.517,0,0,0,5.351-27.089Zm338.782,20.341h0a19.525,19.525,0,0,0-27.1-5.343L474.325,618.256a19.525,19.525,0,0,0-5.343,27.089h0a19.525,19.525,0,0,0,27.1,5.343l114.171-76.511a19.525,19.525,0,0,0,5.351-27.089Zm370.42-448.7h0a19.532,19.532,0,0,0-27.1-5.343l-114.194,76.5a19.532,19.532,0,0,0-5.343,27.1h0a19.532,19.532,0,0,0,27.1,5.343l114.171-76.526a19.532,19.532,0,0,0,5.351-27.1Zm-784.224,307.3h0a19.525,19.525,0,0,0-27.1-5.343L98.8,451.266a19.525,19.525,0,0,0-5.343,27.1h0a19.532,19.532,0,0,0,27.1,5.343L196.46,432.78a19.517,19.517,0,0,0,5.351-27.058ZM439.3,246.539h0a19.525,19.525,0,0,0-27.1-5.343L217.313,371.816a19.532,19.532,0,0,0-5.343,27.1h0a19.532,19.532,0,0,0,27.1,5.343L433.947,273.621a19.517,19.517,0,0,0,5.351-27.081ZM984.111,8.656h0a19.517,19.517,0,0,0-27.089-5.343l-317.2,212.619a19.525,19.525,0,0,0-5.343,27.1h0a19.525,19.525,0,0,0,27.089,5.343l317.2-212.619a19.532,19.532,0,0,0,5.343-27.1ZM708.682,580.627h0a19.532,19.532,0,0,0-27.1-5.343L459.471,724.192a19.517,19.517,0,0,0-5.343,27.089h0a19.517,19.517,0,0,0,27.089,5.343l222.114-148.9a19.525,19.525,0,0,0,5.351-27.1Z" transform="translate(0 0)" fill="url(#linear-gradient)"/>
        </g>
      </g>
    </g>
  </g>
</svg>
