<svg xmlns="http://www.w3.org/2000/svg" width="1002.894" height="795.352" viewBox="0 0 1002.894 795.352">
  <path id="Path_628" data-name="Path 628" d="M613.378,277.673l-59.146,39.645a19.5,19.5,0,0,0-5.343,27.058h0a19.509,19.509,0,0,0,27.058,5.343l14.769-9.923a19.5,19.5,0,0,1,27.058,5.343h0a19.494,19.494,0,0,1-5.343,27.058l-29.821,19.99a19.494,19.494,0,0,0-5.343,27.058h0a19.51,19.51,0,0,1-5.343,27.066l-121,81.114a19.494,19.494,0,0,1-27.058-5.343h0a19.509,19.509,0,0,1,5.343-27.058l7.213-4.832a19.509,19.509,0,0,0,5.343-27.058h0a19.5,19.5,0,0,0-27.058-5.343l-96.417,64.657a19.5,19.5,0,0,1-27.066-5.343h0a19.509,19.509,0,0,1,5.343-27.058l56.834-38.1a19.494,19.494,0,0,0,5.343-27.058h0a19.5,19.5,0,0,0-27.058-5.343l-7.824,5.244a19.5,19.5,0,0,1-27.058-5.343h0a19.509,19.509,0,0,1,5.343-27.058L409.369,320.5a19.5,19.5,0,0,1,27.058,5.343h0a19.5,19.5,0,0,0,27.058,5.343l128.17-85.915a19.494,19.494,0,0,1,27.058,5.343h0a19.5,19.5,0,0,1-5.335,27.058Zm42.308,267.148,59.146-39.645a19.509,19.509,0,0,1,27.058,5.343h0a19.5,19.5,0,0,1-5.343,27.058L721.779,547.5a19.5,19.5,0,0,0-5.343,27.058h0a19.494,19.494,0,0,0,27.058,5.343l29.821-19.99a19.509,19.509,0,0,1,27.058,5.343h0a19.5,19.5,0,0,0,27.058,5.343l121.018-81.114a19.5,19.5,0,0,0,5.343-27.058h0a19.509,19.509,0,0,0-27.058-5.343l-7.213,4.839a19.509,19.509,0,0,1-27.058-5.343h0a19.509,19.509,0,0,1,5.343-27.058l96.44-64.673a19.5,19.5,0,0,0,5.343-27.058h0a19.494,19.494,0,0,0-27.058-5.343l-56.841,38.1a19.494,19.494,0,0,1-27.058-5.343h0a19.509,19.509,0,0,1,5.343-27.058L901.8,332.9a19.494,19.494,0,0,0,5.343-27.058h0a19.494,19.494,0,0,0-27.058-5.343L772.819,372.419a19.5,19.5,0,0,0-5.343,27.058h0a19.509,19.509,0,0,1-5.343,27.058L633.971,512.45a19.5,19.5,0,0,0-5.343,27.058h0a19.5,19.5,0,0,0,27.028,5.335Zm5.74-399.348h0a19.532,19.532,0,0,0-27.1-5.343L503.878,227.595a19.525,19.525,0,0,0-5.343,27.089h0a19.517,19.517,0,0,0,27.089,5.343l130.452-87.434a19.525,19.525,0,0,0,5.351-27.1Zm51.949-34.8h0a19.525,19.525,0,0,0-27.089-5.343h0a19.525,19.525,0,0,0-5.343,27.1h0a19.525,19.525,0,0,0,27.089,5.343h0A19.532,19.532,0,0,0,713.375,110.676ZM80.686,486.911h0a19.525,19.525,0,0,0-27.1-5.343h0a19.532,19.532,0,0,0-5.343,27.1h0a19.532,19.532,0,0,0,27.1,5.343h0a19.525,19.525,0,0,0,5.343-27.1ZM390.218,698.156h0a19.532,19.532,0,0,0-27.1-5.343l-99.654,66.795a19.525,19.525,0,0,0-5.343,27.089h0a19.517,19.517,0,0,0,27.089,5.343l99.654-66.795a19.525,19.525,0,0,0,5.351-27.089ZM113.98,635.9h0a19.532,19.532,0,0,0-27.1-5.343L8.655,682.982a19.525,19.525,0,0,0-5.343,27.1h0A19.525,19.525,0,0,0,30.4,715.422l78.228-52.437A19.532,19.532,0,0,0,113.98,635.9Zm328.21,27.44h0a19.525,19.525,0,0,0-27.1-5.343h0a19.532,19.532,0,0,0-5.343,27.1h0a19.525,19.525,0,0,0,27.089,5.343h0a19.517,19.517,0,0,0,5.328-27.1ZM824.653,206.543h0a19.525,19.525,0,0,0-27.089-5.343h0a19.517,19.517,0,0,0-5.343,27.089h0a19.525,19.525,0,0,0,27.1,5.343h0a19.532,19.532,0,0,0,5.335-27.089ZM998.2,433.581h0a19.525,19.525,0,0,0-27.1-5.343h0a19.532,19.532,0,0,0-5.343,27.1h0a19.525,19.525,0,0,0,27.089,5.343h0a19.517,19.517,0,0,0,5.351-27.1ZM618.087,468.692h0A19.525,19.525,0,0,0,591,463.349L339.178,632.094a19.517,19.517,0,0,0-5.343,27.089h0a19.525,19.525,0,0,0,27.1,5.343l251.8-168.776a19.532,19.532,0,0,0,5.343-27.1Zm96.784-118.133h0a19.532,19.532,0,0,0-27.1-5.343l-72.511,48.59a19.525,19.525,0,0,0-5.343,27.1h0a19.525,19.525,0,0,0,27.089,5.343l72.511-48.59a19.532,19.532,0,0,0,5.335-27.135ZM979.927,172.9h0a19.525,19.525,0,0,0-27.1-5.343L736.884,312.242a19.532,19.532,0,0,0-5.343,27.1h0a19.525,19.525,0,0,0,27.089,5.343l215.931-144.7a19.525,19.525,0,0,0,5.351-27.119ZM783.352,234.281h0a19.532,19.532,0,0,0-27.1-5.343L642.062,305.426a19.532,19.532,0,0,0-5.343,27.1h0a19.517,19.517,0,0,0,27.089,5.343l114.179-76.526a19.525,19.525,0,0,0,5.351-27.1ZM414.865,528.143h0a19.525,19.525,0,0,0-27.1-5.343L145.786,684.952a19.532,19.532,0,0,0-5.343,27.1h0a19.525,19.525,0,0,0,27.089,5.343L409.491,555.2a19.525,19.525,0,0,0,5.358-27.089Zm-138.031-1.366h0a19.525,19.525,0,0,0-27.1-5.343l-114.194,76.5a19.532,19.532,0,0,0-5.343,27.1h0a19.525,19.525,0,0,0,27.089,5.343l114.179-76.534a19.517,19.517,0,0,0,5.351-27.089Zm338.781,20.341h0a19.525,19.525,0,0,0-27.1-5.343L474.324,618.256a19.525,19.525,0,0,0-5.343,27.089h0a19.525,19.525,0,0,0,27.1,5.343l114.171-76.511a19.525,19.525,0,0,0,5.351-27.089Zm370.419-448.7h0a19.532,19.532,0,0,0-27.1-5.343l-114.194,76.5a19.532,19.532,0,0,0-5.343,27.1h0a19.532,19.532,0,0,0,27.1,5.343l114.171-76.526a19.532,19.532,0,0,0,5.351-27.1Zm-784.223,307.3h0a19.525,19.525,0,0,0-27.1-5.343L98.8,451.266a19.525,19.525,0,0,0-5.343,27.1h0a19.532,19.532,0,0,0,27.1,5.343l75.908-50.926a19.517,19.517,0,0,0,5.351-27.058ZM439.3,246.539h0a19.525,19.525,0,0,0-27.1-5.343L217.313,371.816a19.532,19.532,0,0,0-5.343,27.1h0a19.532,19.532,0,0,0,27.1,5.343L433.947,273.62a19.517,19.517,0,0,0,5.351-27.081ZM984.11,8.656h0a19.517,19.517,0,0,0-27.089-5.343l-317.2,212.619a19.525,19.525,0,0,0-5.343,27.1h0a19.525,19.525,0,0,0,27.089,5.343l317.2-212.619a19.532,19.532,0,0,0,5.343-27.1ZM708.681,580.627h0a19.532,19.532,0,0,0-27.1-5.343L459.471,724.192a19.517,19.517,0,0,0-5.343,27.089h0a19.517,19.517,0,0,0,27.089,5.343l222.114-148.9a19.525,19.525,0,0,0,5.351-27.1Z" transform="translate(0 0)" fill="#fff"/>
</svg>
