<svg xmlns="http://www.w3.org/2000/svg" xmlns:xlink="http://www.w3.org/1999/xlink" width="1002.895" height="795.352" viewBox="0 0 1002.895 795.352">
  <defs>
    <linearGradient id="linear-gradient" y1="0.5" x2="1" y2="0.5" gradientUnits="objectBoundingBox">
      <stop offset="0" stop-color="#3e0f69"/>
      <stop offset="1" stop-color="#761ee4"/>
    </linearGradient>
  </defs>
  <path id="Path_629" data-name="Path 629" d="M613.379,277.674l-59.147,39.645a19.5,19.5,0,0,0-5.343,27.058h0a19.509,19.509,0,0,0,27.058,5.343l14.769-9.923a19.5,19.5,0,0,1,27.058,5.343h0a19.494,19.494,0,0,1-5.343,27.058l-29.821,19.99a19.494,19.494,0,0,0-5.343,27.058h0a19.509,19.509,0,0,1-5.343,27.066l-121,81.114a19.494,19.494,0,0,1-27.058-5.343h0a19.509,19.509,0,0,1,5.343-27.058l7.213-4.832a19.509,19.509,0,0,0,5.343-27.058h0a19.5,19.5,0,0,0-27.058-5.343L318.288,522.45a19.5,19.5,0,0,1-27.066-5.343h0a19.509,19.509,0,0,1,5.343-27.058l56.834-38.1a19.494,19.494,0,0,0,5.343-27.058h0a19.5,19.5,0,0,0-27.058-5.343l-7.824,5.244a19.5,19.5,0,0,1-27.058-5.343h0a19.509,19.509,0,0,1,5.343-27.058L409.37,320.5a19.5,19.5,0,0,1,27.058,5.343h0a19.5,19.5,0,0,0,27.058,5.343l128.17-85.915a19.494,19.494,0,0,1,27.058,5.343h0a19.5,19.5,0,0,1-5.335,27.058Zm42.309,267.148,59.147-39.645a19.509,19.509,0,0,1,27.058,5.343h0a19.5,19.5,0,0,1-5.343,27.058L721.78,547.5a19.5,19.5,0,0,0-5.343,27.058h0A19.494,19.494,0,0,0,743.5,579.9l29.821-19.99a19.509,19.509,0,0,1,27.058,5.343h0a19.5,19.5,0,0,0,27.058,5.343l121.018-81.114a19.5,19.5,0,0,0,5.343-27.058h0a19.509,19.509,0,0,0-27.058-5.343l-7.213,4.839a19.509,19.509,0,0,1-27.058-5.343h0a19.509,19.509,0,0,1,5.343-27.058l96.44-64.673a19.5,19.5,0,0,0,5.343-27.058h0a19.494,19.494,0,0,0-27.058-5.343l-56.841,38.1a19.494,19.494,0,0,1-27.058-5.343h0a19.509,19.509,0,0,1,5.343-27.058L901.8,332.9a19.494,19.494,0,0,0,5.343-27.058h0a19.494,19.494,0,0,0-27.058-5.343L772.82,372.419a19.5,19.5,0,0,0-5.343,27.058h0a19.509,19.509,0,0,1-5.343,27.058L633.972,512.451a19.5,19.5,0,0,0-5.343,27.058h0a19.5,19.5,0,0,0,27.028,5.335Zm5.74-399.348h0a19.532,19.532,0,0,0-27.1-5.343L503.879,227.595a19.525,19.525,0,0,0-5.343,27.089h0a19.517,19.517,0,0,0,27.089,5.343l130.452-87.434a19.525,19.525,0,0,0,5.351-27.1Zm51.949-34.8h0a19.525,19.525,0,0,0-27.089-5.343h0a19.525,19.525,0,0,0-5.343,27.1h0a19.525,19.525,0,0,0,27.089,5.343h0A19.532,19.532,0,0,0,713.376,110.676ZM80.686,486.911h0a19.525,19.525,0,0,0-27.1-5.343h0a19.532,19.532,0,0,0-5.343,27.1h0a19.532,19.532,0,0,0,27.1,5.343h0a19.525,19.525,0,0,0,5.343-27.1ZM390.219,698.157h0a19.532,19.532,0,0,0-27.1-5.343l-99.654,66.795a19.525,19.525,0,0,0-5.343,27.089h0a19.517,19.517,0,0,0,27.089,5.343l99.654-66.795a19.525,19.525,0,0,0,5.351-27.089ZM113.98,635.9h0a19.532,19.532,0,0,0-27.1-5.343L8.655,682.983a19.525,19.525,0,0,0-5.343,27.1h0A19.525,19.525,0,0,0,30.4,715.422l78.229-52.437A19.532,19.532,0,0,0,113.98,635.9Zm328.21,27.44h0a19.525,19.525,0,0,0-27.1-5.343h0a19.532,19.532,0,0,0-5.343,27.1h0a19.525,19.525,0,0,0,27.089,5.343h0a19.517,19.517,0,0,0,5.328-27.1ZM824.655,206.544h0a19.525,19.525,0,0,0-27.089-5.343h0a19.517,19.517,0,0,0-5.343,27.089h0a19.525,19.525,0,0,0,27.1,5.343h0a19.532,19.532,0,0,0,5.335-27.089ZM998.2,433.581h0a19.525,19.525,0,0,0-27.1-5.343h0a19.532,19.532,0,0,0-5.343,27.1h0a19.525,19.525,0,0,0,27.089,5.343h0a19.517,19.517,0,0,0,5.351-27.1ZM618.088,468.692h0A19.525,19.525,0,0,0,591,463.349L339.178,632.095a19.517,19.517,0,0,0-5.343,27.089h0a19.525,19.525,0,0,0,27.1,5.343L612.73,495.75a19.532,19.532,0,0,0,5.343-27.1Zm96.784-118.133h0a19.532,19.532,0,0,0-27.1-5.343l-72.512,48.59a19.524,19.524,0,0,0-5.343,27.1h0a19.525,19.525,0,0,0,27.089,5.343l72.512-48.59a19.532,19.532,0,0,0,5.335-27.135ZM979.929,172.9h0a19.525,19.525,0,0,0-27.1-5.343L736.885,312.242a19.532,19.532,0,0,0-5.343,27.1h0a19.525,19.525,0,0,0,27.089,5.343l215.932-144.7a19.525,19.525,0,0,0,5.35-27.119ZM783.354,234.281h0a19.532,19.532,0,0,0-27.1-5.343L642.063,305.426a19.533,19.533,0,0,0-5.343,27.1h0a19.517,19.517,0,0,0,27.089,5.343l114.179-76.526a19.525,19.525,0,0,0,5.351-27.1ZM414.865,528.144h0a19.525,19.525,0,0,0-27.1-5.343L145.786,684.952a19.532,19.532,0,0,0-5.343,27.1h0a19.525,19.525,0,0,0,27.089,5.343L409.492,555.2a19.525,19.525,0,0,0,5.358-27.089Zm-138.031-1.366h0a19.525,19.525,0,0,0-27.1-5.343l-114.194,76.5a19.532,19.532,0,0,0-5.343,27.1h0a19.525,19.525,0,0,0,27.089,5.343l114.179-76.534a19.517,19.517,0,0,0,5.351-27.089Zm338.782,20.341h0a19.525,19.525,0,0,0-27.1-5.343L474.325,618.256a19.525,19.525,0,0,0-5.343,27.089h0a19.525,19.525,0,0,0,27.1,5.343l114.171-76.511a19.525,19.525,0,0,0,5.351-27.089Zm370.42-448.7h0a19.532,19.532,0,0,0-27.1-5.343l-114.194,76.5a19.532,19.532,0,0,0-5.343,27.1h0a19.532,19.532,0,0,0,27.1,5.343l114.171-76.526a19.532,19.532,0,0,0,5.351-27.1Zm-784.224,307.3h0a19.525,19.525,0,0,0-27.1-5.343L98.8,451.266a19.525,19.525,0,0,0-5.343,27.1h0a19.532,19.532,0,0,0,27.1,5.343L196.46,432.78a19.517,19.517,0,0,0,5.351-27.058ZM439.3,246.539h0a19.525,19.525,0,0,0-27.1-5.343L217.313,371.816a19.532,19.532,0,0,0-5.343,27.1h0a19.532,19.532,0,0,0,27.1,5.343L433.947,273.621a19.517,19.517,0,0,0,5.351-27.081ZM984.111,8.656h0a19.517,19.517,0,0,0-27.089-5.343l-317.2,212.619a19.525,19.525,0,0,0-5.343,27.1h0a19.525,19.525,0,0,0,27.089,5.343l317.2-212.619a19.532,19.532,0,0,0,5.343-27.1ZM708.682,580.627h0a19.532,19.532,0,0,0-27.1-5.343L459.471,724.192a19.517,19.517,0,0,0-5.343,27.089h0a19.517,19.517,0,0,0,27.089,5.343l222.114-148.9a19.525,19.525,0,0,0,5.351-27.1Z" transform="translate(0 0)" fill="url(#linear-gradient)"/>
</svg>
